<svg width="20" height="21" viewBox="0 0 20 21" fill="none" xmlns="http://www.w3.org/2000/svg">
<g id="shopping_cart">
<mask id="mask0_6878_4093" style="mask-type:alpha" maskUnits="userSpaceOnUse" x="0" y="0" width="20" height="21">
<rect id="Bounding box" y="0.325073" width="20" height="20" fill="#D9D9D9"/>
</mask>
<g mask="url(#mask0_6878_4093)">
<path id="shopping_cart_2" d="M5.96146 18.2899C5.5566 18.2899 5.21236 18.148 4.92875 17.8642C4.64514 17.5806 4.50333 17.2364 4.50333 16.8315C4.50333 16.4265 4.64514 16.0822 4.92875 15.7986C5.21236 15.515 5.5566 15.3732 5.96146 15.3732C6.36646 15.3732 6.71076 15.515 6.99438 15.7986C7.27799 16.0822 7.41979 16.4265 7.41979 16.8315C7.41979 17.2364 7.27799 17.5806 6.99438 17.8642C6.71076 18.148 6.36646 18.2899 5.96146 18.2899ZM14.0385 18.2899C13.6335 18.2899 13.2892 18.148 13.0056 17.8642C12.722 17.5806 12.5802 17.2364 12.5802 16.8315C12.5802 16.4265 12.722 16.0822 13.0056 15.7986C13.2892 15.515 13.6335 15.3732 14.0385 15.3732C14.4434 15.3732 14.7876 15.515 15.0713 15.7986C15.3549 16.0822 15.4967 16.4265 15.4967 16.8315C15.4967 17.2364 15.3549 17.5806 15.0713 17.8642C14.7876 18.148 14.4434 18.2899 14.0385 18.2899ZM4.41354 3.86674H15.984C16.3248 3.86674 16.5825 4.01181 16.7571 4.30195C16.9318 4.59195 16.9401 4.88813 16.7821 5.19049L14.1121 10.0269C13.9754 10.2674 13.7947 10.4546 13.5698 10.5886C13.3448 10.7228 13.0983 10.7899 12.8302 10.7899H6.75L5.78521 12.5526C5.74243 12.6167 5.74111 12.6862 5.78125 12.7609C5.82125 12.8358 5.88132 12.8732 5.96146 12.8732H15.4967V14.1232H5.96146C5.4059 14.1232 4.98847 13.8836 4.70917 13.4044C4.42972 12.9253 4.41986 12.4469 4.67958 11.9692L5.86854 9.83153L2.83667 3.45007H1.25V2.20007H3.62188L4.41354 3.86674Z" fill="white"/>
</g>
</g>
</svg>
