<svg width="24" height="15" viewBox="0 0 24 15" fill="none" xmlns="http://www.w3.org/2000/svg">
<path d="M23.4792 0.506846C23.3304 0.416537 23.1609 0.366136 22.9869 0.360513C22.813 0.354891 22.6405 0.394238 22.4863 0.474751C22.4449 0.496257 22.405 0.520461 22.3668 0.547206L22.3604 0.553523C22.2741 0.616228 22.1934 0.686181 22.119 0.762618C21.5248 1.35343 20.5682 2.33145 19.9767 2.92469C19.9345 2.96788 19.8897 3.00844 19.8426 3.04615L19.8419 3.04569C19.8371 3.04908 19.83 3.05484 19.8261 3.0573C19.7814 3.02715 19.7399 2.99226 19.7026 2.95324C19.5689 2.82098 19.4369 2.68701 19.3046 2.55305C19.1971 2.44412 19.0894 2.33496 18.981 2.22676L18.6212 1.86668C18.248 1.49323 17.875 1.12002 17.4974 0.750947C17.4929 0.746556 17.4884 0.74376 17.4839 0.739444C17.3886 0.620623 17.2676 0.524914 17.13 0.45949C16.9924 0.394065 16.8418 0.360621 16.6895 0.36166C16.6879 0.361389 16.6862 0.361251 16.6846 0.36125C16.6827 0.361264 16.6807 0.361965 16.6787 0.361996C16.5208 0.363891 16.3655 0.402492 16.2251 0.474748C16.1837 0.496254 16.1438 0.520456 16.1056 0.547201L16.0993 0.553518C16.013 0.616224 15.9322 0.686176 15.8578 0.762613C15.5841 1.03474 15.2332 1.38946 14.8768 1.75045L13.6766 2.94657C13.6396 2.98443 13.5999 3.01973 13.5581 3.05223C13.516 3.02324 13.4769 2.99007 13.4415 2.95324C13.3078 2.82098 13.1757 2.68701 13.0435 2.55305C12.936 2.44412 12.8283 2.33496 12.7199 2.22676L12.36 1.86668C11.9868 1.49323 11.6138 1.12002 11.2363 0.750947C11.0638 0.567642 10.841 0.439268 10.596 0.381887C10.5766 0.377769 10.557 0.377693 10.5376 0.374791C10.5027 0.368372 10.4675 0.364094 10.4322 0.361981C10.4292 0.362011 10.4264 0.361176 10.4235 0.361252C10.4174 0.361298 10.4112 0.363378 10.4051 0.363591C10.3928 0.3635 10.3806 0.360081 10.3683 0.360473C10.3515 0.36096 10.335 0.362177 10.3196 0.363879L10.3129 0.364577C10.3045 0.365474 10.2962 0.366232 10.2879 0.367387C10.2604 0.37073 10.2334 0.374834 10.2059 0.380898C10.187 0.384727 10.1687 0.392446 10.15 0.397431C9.96457 0.456552 9.79651 0.560331 9.66061 0.699643C9.475 0.882646 9.26105 1.0966 9.03612 1.32281C8.57481 1.78244 8.11378 2.24232 7.65303 2.70247L7.33021 3.02516C7.31593 3.03721 7.30185 3.04893 7.29137 3.05674C7.28699 3.05391 7.28104 3.04954 7.27605 3.04615L7.27514 3.04685C7.24789 3.02783 7.22205 3.00687 7.19782 2.98412C7.15357 2.94327 7.11127 2.89999 7.06896 2.85696L6.38211 2.16719C5.90873 1.69211 5.43446 1.21808 4.9593 0.745111C4.68845 0.476935 4.4001 0.351234 4.10712 0.360471C4.09035 0.360957 4.07381 0.362175 4.05849 0.363876L4.05175 0.364575C4.04342 0.365472 4.03509 0.366232 4.02677 0.367387C3.99929 0.37073 3.97224 0.374832 3.94471 0.380895C3.92587 0.384724 3.90757 0.392444 3.88885 0.397428C3.70343 0.456543 3.53538 0.560326 3.39948 0.699643C3.21385 0.882646 2.9999 1.0966 2.775 1.32281C2.31365 1.78244 1.85261 2.24232 1.39188 2.70246L0.740768 3.35333C0.680816 3.41224 0.625101 3.47532 0.57404 3.54209L0.329874 3.78682C0.148034 3.95372 0.0329716 4.18095 0.00607076 4.4263C-0.0208301 4.67165 0.0422607 4.91843 0.183617 5.12076C0.324973 5.32309 0.534981 5.46722 0.77461 5.52636C1.01424 5.58551 1.26719 5.55564 1.48646 5.44231C1.52783 5.4208 1.56775 5.3966 1.60596 5.36986L1.61234 5.36354C1.69861 5.30083 1.77938 5.23088 1.85377 5.15444C2.44798 4.56363 3.40446 3.58563 3.99601 2.99239C4.03821 2.9492 4.08301 2.90864 4.13016 2.87093L4.13083 2.87138C4.13563 2.86799 4.14274 2.86224 4.14657 2.85977C4.19135 2.88993 4.23276 2.92481 4.27008 2.96383C4.4038 3.0961 4.53582 3.23007 4.66809 3.36403C4.77555 3.47295 4.88326 3.58212 4.9917 3.69031L5.35153 4.0504C5.72474 4.42385 6.09771 4.79706 6.47529 5.16613C6.47979 5.17054 6.48435 5.17335 6.48885 5.17768C6.58417 5.29647 6.70514 5.39215 6.84269 5.45756C6.98023 5.52298 7.1308 5.55642 7.2831 5.5554C7.28475 5.55568 7.28642 5.55582 7.28809 5.55583C7.29012 5.55581 7.29216 5.55508 7.29416 5.55505C7.45201 5.55314 7.60725 5.51455 7.74761 5.44231C7.78898 5.42081 7.8289 5.39661 7.86711 5.36986L7.87346 5.36354C7.95973 5.30084 8.0405 5.23089 8.11489 5.15445C8.38844 4.88249 8.7391 4.52803 9.09523 4.16727L10.2961 2.97051C10.3332 2.93265 10.3728 2.89735 10.4146 2.86485C10.4568 2.89383 10.4958 2.92699 10.5312 2.96384C10.665 3.0961 10.797 3.23007 10.9292 3.36403C11.0367 3.47296 11.1444 3.58212 11.2529 3.69032L11.6127 4.0504C11.9859 4.42385 12.3589 4.79706 12.7364 5.16614C12.9089 5.34944 13.1317 5.47781 13.3767 5.53519C13.3961 5.53931 13.4157 5.53939 13.4352 5.54229C13.47 5.54871 13.5052 5.55299 13.5406 5.5551C13.5435 5.55507 13.5464 5.55591 13.5492 5.55583C13.5554 5.55579 13.5615 5.5537 13.5677 5.55349C13.5799 5.55358 13.5921 5.557 13.6044 5.55661C13.6212 5.55612 13.6377 5.5549 13.6531 5.5532L13.6598 5.55251C13.6682 5.55161 13.6765 5.55085 13.6849 5.5497C13.7123 5.54635 13.7394 5.54225 13.7668 5.53619C13.7857 5.53236 13.804 5.52463 13.8227 5.51965C14.0081 5.46052 14.1762 5.35675 14.3121 5.21744C14.4973 5.03486 14.7106 4.8215 14.935 4.59587C15.3969 4.13571 15.8584 3.67529 16.3197 3.21462L16.6424 2.89198C16.6568 2.87992 16.6709 2.86817 16.6813 2.86034C16.6857 2.86317 16.6917 2.86755 16.6967 2.87093L16.6976 2.87024C16.7248 2.88925 16.7507 2.91021 16.7749 2.93296C16.8191 2.97381 16.8614 3.01709 16.9037 3.06012L17.5906 3.74989C18.064 4.22497 18.5382 4.699 19.0134 5.17197C19.2843 5.44015 19.5726 5.56585 19.8656 5.55661C19.8824 5.55613 19.8989 5.55491 19.9142 5.55321L19.921 5.55251C19.9293 5.55161 19.9376 5.55085 19.946 5.5497C19.9734 5.54635 20.0005 5.54225 20.028 5.53619C20.0468 5.53236 20.0652 5.52464 20.0839 5.51965C20.2693 5.46053 20.4373 5.35675 20.5733 5.21744C20.7584 5.03486 20.9718 4.8215 21.1961 4.59587C21.658 4.13571 22.1196 3.6753 22.5808 3.21462L23.2319 2.56375C23.2919 2.50483 23.3477 2.44173 23.3987 2.37495L23.6428 2.13025C23.7591 2.02294 23.8489 1.89006 23.905 1.7421C23.9612 1.59414 23.9821 1.43516 23.9662 1.27771C23.9504 1.12026 23.8981 0.968652 23.8136 0.83487C23.7291 0.701088 23.6146 0.588791 23.4792 0.506851V0.506846Z" fill="#F4F6F8"/>
<path d="M23.4792 14.1433C23.3304 14.2336 23.1609 14.284 22.9869 14.2896C22.813 14.2952 22.6405 14.2559 22.4863 14.1753C22.4449 14.1538 22.405 14.1296 22.3668 14.1029L22.3604 14.0966C22.2741 14.0339 22.1934 13.9639 22.119 13.8875C21.5248 13.2967 20.5682 12.3187 19.9767 11.7254C19.9345 11.6822 19.8897 11.6417 19.8426 11.6039L19.8419 11.6044C19.8371 11.601 19.83 11.5953 19.8261 11.5928C19.7814 11.623 19.7399 11.6578 19.7026 11.6969C19.5689 11.8291 19.4369 11.9631 19.3046 12.0971C19.1972 12.206 19.0894 12.3151 18.981 12.4233L18.6212 12.7834C18.248 13.1569 17.875 13.5301 17.4974 13.8992C17.4929 13.9035 17.4884 13.9063 17.4839 13.9107C17.3886 14.0295 17.2676 14.1252 17.13 14.1906C16.9924 14.256 16.8418 14.2895 16.6895 14.2884C16.6879 14.2887 16.6862 14.2888 16.6846 14.2888C16.6827 14.2888 16.6807 14.2881 16.6787 14.2881C16.5208 14.2862 16.3655 14.2476 16.2251 14.1754C16.1837 14.1538 16.1438 14.1296 16.1056 14.1029L16.0993 14.0966C16.013 14.0339 15.9322 13.9639 15.8578 13.8875C15.5841 13.6154 15.2332 13.2606 14.8768 12.8997L13.6766 11.7035C13.6396 11.6657 13.5999 11.6304 13.5581 11.5979C13.516 11.6269 13.4769 11.66 13.4415 11.6969C13.3077 11.8291 13.1757 11.9631 13.0435 12.0971C12.936 12.206 12.8283 12.3151 12.7199 12.4233L12.36 12.7834C11.9868 13.1569 11.6138 13.5301 11.2363 13.8992C11.0638 14.0825 10.841 14.2108 10.596 14.2682C10.5766 14.2723 10.557 14.2724 10.5376 14.2753C10.5027 14.2817 10.4675 14.286 10.4322 14.2881C10.4292 14.2881 10.4264 14.2889 10.4235 14.2889C10.4174 14.2888 10.4112 14.2867 10.4051 14.2865C10.3928 14.2866 10.3806 14.29 10.3683 14.2896C10.3515 14.2891 10.335 14.2879 10.3196 14.2862L10.3129 14.2855C10.3045 14.2846 10.2962 14.2839 10.2879 14.2827C10.2604 14.2794 10.2334 14.2753 10.2059 14.2692C10.187 14.2654 10.1687 14.2577 10.15 14.2527C9.96457 14.1936 9.79651 14.0898 9.6606 13.9505C9.475 13.7675 9.26105 13.5535 9.03612 13.3273C8.5748 12.8677 8.11378 12.4078 7.65303 11.9476L7.33021 11.6249C7.31592 11.6129 7.30185 11.6012 7.29137 11.5934C7.28699 11.5962 7.28103 11.6006 7.27605 11.604L7.27514 11.6033C7.24789 11.6223 7.22205 11.6432 7.19782 11.666C7.15357 11.7068 7.11127 11.7501 7.06896 11.7931L6.38211 12.4829C5.90873 12.958 5.43446 13.432 4.9593 13.905C4.68845 14.1732 4.4001 14.2989 4.10712 14.2896C4.09034 14.2891 4.07381 14.2879 4.05849 14.2862L4.05175 14.2855C4.04342 14.2846 4.03509 14.2839 4.02677 14.2827C3.99929 14.2794 3.97224 14.2753 3.94471 14.2692C3.92587 14.2654 3.90757 14.2577 3.88885 14.2527C3.70343 14.1936 3.53538 14.0898 3.39948 13.9505C3.21385 13.7675 2.99989 13.5535 2.775 13.3273C2.31365 12.8677 1.85261 12.4078 1.39188 11.9476L0.740768 11.2968C0.680816 11.2379 0.625101 11.1748 0.574039 11.108L0.329874 10.8633C0.148034 10.6964 0.0329716 10.4692 0.00607076 10.2238C-0.0208301 9.97845 0.0422607 9.73168 0.183617 9.52934C0.324973 9.32701 0.534981 9.18288 0.77461 9.12374C1.01424 9.0646 1.26719 9.09447 1.48646 9.20779C1.52783 9.2293 1.56775 9.2535 1.60596 9.28025L1.61234 9.28657C1.69861 9.34927 1.77938 9.41922 1.85377 9.49566C2.44798 10.0865 3.40446 11.0645 3.99601 11.6577C4.03821 11.7009 4.083 11.7415 4.13016 11.7792L4.13083 11.7787C4.13563 11.7821 4.14274 11.7879 4.14657 11.7903C4.19135 11.7602 4.23276 11.7253 4.27008 11.6863C4.4038 11.554 4.53582 11.42 4.66809 11.2861C4.77555 11.1771 4.88326 11.068 4.9917 10.9598L5.35153 10.5997C5.72474 10.2263 6.09771 9.85305 6.47529 9.48397C6.47979 9.47957 6.48435 9.47675 6.48885 9.47242C6.58417 9.35364 6.70514 9.25795 6.84269 9.19254C6.98023 9.12713 7.1308 9.09368 7.2831 9.0947C7.28475 9.09443 7.28641 9.09429 7.28808 9.09428C7.29012 9.09429 7.29216 9.09502 7.29416 9.09505C7.45201 9.09696 7.60725 9.13555 7.74761 9.20779C7.78898 9.22929 7.8289 9.2535 7.86711 9.28024L7.87346 9.28656C7.95973 9.34927 8.0405 9.41922 8.11489 9.49566C8.38844 9.76762 8.7391 10.1221 9.09523 10.4828L10.2961 11.6796C10.3332 11.7174 10.3728 11.7527 10.4146 11.7853C10.4567 11.7563 10.4958 11.7231 10.5312 11.6863C10.665 11.554 10.797 11.42 10.9292 11.2861C11.0367 11.1771 11.1444 11.068 11.2529 10.9598L11.6127 10.5997C11.9859 10.2263 12.3589 9.85304 12.7364 9.48397C12.9089 9.30067 13.1317 9.1723 13.3767 9.11491C13.3961 9.11079 13.4157 9.11072 13.4351 9.10781C13.47 9.1014 13.5052 9.09712 13.5406 9.095C13.5435 9.09503 13.5464 9.0942 13.5492 9.09427C13.5554 9.09432 13.5615 9.0964 13.5677 9.09661C13.5799 9.09652 13.5921 9.0931 13.6044 9.0935C13.6212 9.09398 13.6377 9.0952 13.6531 9.0969L13.6598 9.0976C13.6682 9.09849 13.6765 9.09925 13.6848 9.10041C13.7123 9.10375 13.7394 9.10785 13.7668 9.11392C13.7857 9.11775 13.804 9.12546 13.8227 9.13045C14.0081 9.18958 14.1762 9.29336 14.3121 9.43266C14.4973 9.61524 14.7106 9.82861 14.935 10.0542C15.3969 10.5144 15.8584 10.9748 16.3197 11.4355L16.6424 11.7581C16.6568 11.7702 16.6709 11.7819 16.6813 11.7898C16.6857 11.7869 16.6917 11.7826 16.6967 11.7792L16.6976 11.7799C16.7248 11.7609 16.7507 11.7399 16.7749 11.7171C16.8191 11.6763 16.8614 11.633 16.9037 11.59L17.5906 10.9002C18.064 10.4251 18.5382 9.95111 19.0134 9.47813C19.2843 9.20996 19.5726 9.08425 19.8656 9.09349C19.8824 9.09398 19.8989 9.0952 19.9142 9.0969L19.921 9.0976C19.9293 9.09849 19.9376 9.09925 19.946 9.10041C19.9734 9.10375 20.0005 9.10785 20.028 9.11392C20.0468 9.11775 20.0652 9.12546 20.0839 9.13045C20.2693 9.18957 20.4373 9.29335 20.5733 9.43266C20.7584 9.61524 20.9718 9.82861 21.1961 10.0542C21.658 10.5144 22.1196 10.9748 22.5808 11.4355L23.2319 12.0863C23.2919 12.1453 23.3476 12.2084 23.3987 12.2752L23.6428 12.5199C23.7591 12.6272 23.8489 12.76 23.905 12.908C23.9612 13.056 23.9821 13.2149 23.9662 13.3724C23.9504 13.5298 23.8981 13.6815 23.8136 13.8152C23.7291 13.949 23.6146 14.0613 23.4792 14.1433H23.4792Z" fill="#F4F6F8"/>
<path d="M4.12954 8.34772C4.69432 8.34772 5.15215 7.88988 5.15215 7.3251C5.15215 6.76033 4.69432 6.30249 4.12954 6.30249C3.56477 6.30249 3.10693 6.76033 3.10693 7.3251C3.10693 7.88988 3.56477 8.34772 4.12954 8.34772Z" fill="#F4F6F8"/>
<path d="M10.4183 8.34772C10.9831 8.34772 11.4409 7.88988 11.4409 7.3251C11.4409 6.76033 10.9831 6.30249 10.4183 6.30249C9.85353 6.30249 9.39569 6.76033 9.39569 7.3251C9.39569 7.88988 9.85353 8.34772 10.4183 8.34772Z" fill="#F4F6F8"/>
<path d="M16.6979 8.34772C17.2627 8.34772 17.7205 7.88988 17.7205 7.3251C17.7205 6.76033 17.2627 6.30249 16.6979 6.30249C16.1331 6.30249 15.6753 6.76033 15.6753 7.3251C15.6753 7.88988 16.1331 8.34772 16.6979 8.34772Z" fill="#F4F6F8"/>
<path d="M22.9775 8.34772C23.5423 8.34772 24.0001 7.88988 24.0001 7.3251C24.0001 6.76033 23.5423 6.30249 22.9775 6.30249C22.4127 6.30249 21.9549 6.76033 21.9549 7.3251C21.9549 7.88988 22.4127 8.34772 22.9775 8.34772Z" fill="#F4F6F8"/>
</svg>
